# xmcd
#
# Track frame offsets: 
#        150
#        14812
#        29986
#        46118
#        56564
#        72246
#        88528
#        100245
#        115177
#        129672
#        141641
#        153877
#        167383
#        180289
#        191388
#        208045
#        221477
#
# Disc length: 3071 seconds
#
# Revision: 0
# Processed by: cddbd v1.5.2PL0 Copyright (c) Steve Scherf et al.
# Submitted via: ExactAudioCopy v0.95b4
#
DISCID=f10bfd11
DTITLE=Diverse - Top 101 der Volksmusik
DYEAR=1900
DGENRE=Folklore
TTITLE0=Sierra Madre
TTITLE1=Schön ist es auf der Welt zu sein
TTITLE2=Ich bin der Hias (Anton aus Tirol)
TTITLE3=Rosamunde
TTITLE4=Capri Fischer
TTITLE5=Kufsteiner Land
TTITLE6=In München steht ein Hofbräuhaus
TTITLE7=Zillertaler Hochzeitsmarsch
TTITLE8=Aber dich gibts nur einmal für mich
TTITLE9=Du schwarzer Zigeuner
TTITLE10=Eviva Espana
TTITLE11=Aus Böhmen kommt die Musik
TTITLE12=Hoch auf dem gelben Wagen
TTITLE13=Rucki Zucki
TTITLE14=Mer losse den Dom en Kölle 98
TTITLE15=Heidewitzka, Herr Kapitän
TTITLE16=Heute kommen die Engerl auf Urlaub in Wien
EXTD=
EXTT0=
EXTT1=
EXTT2=
EXTT3=
EXTT4=
EXTT5=
EXTT6=
EXTT7=
EXTT8=
EXTT9=
EXTT10=
EXTT11=
EXTT12=
EXTT13=
EXTT14=
EXTT15=
EXTT16=
PLAYORDER=
